# xmcd
#
# Track frame offsets: 
#        150
#        22349
#        49974
#        69405
#        97356
#        121355
#        147255
#        169305
#        194422
#        213564
#
# Disc length: 3219 seconds
#
# Revision: 0
# Processed by: cddbd v1.5.2PL0 Copyright (c) Steve Scherf et al.
# Submitted via: ExactAudioCopy v1.0b3
#
DISCID=a40c910a
DTITLE=Che Linh - Linh Nghi Gi CD2
DYEAR=2002
DGENRE=
TTITLE0=Dem toc roi
TTITLE1=Cho xin song lai
TTITLE2=Tra lai em
TTITLE3=Doan buon cho toi
TTITLE4=Linh nghi gi
TTITLE5=Che Linh, Huong Lan - Xin yeu toi bang ca tinh nguoi
TTITLE6=Bong co may
TTITLE7=Con duong mang ten em
TTITLE8=Loi lu khach
TTITLE9=Can nha di vang
EXTD=
EXTT0=
EXTT1=
EXTT2=
EXTT3=
EXTT4=
EXTT5=
EXTT6=
EXTT7=
EXTT8=
EXTT9=
PLAYORDER=
